Coordinates
version=1
nRows=10
nColumns=34
inDegrees=yes

Units are S.I. units (second, meters, Newtons, ...)
If the header above contains a line with 'inDegrees', this indicates whether rotational values are in degrees (yes) or radians (no).

endheader
time	pelvis_tilt	pelvis_list	pelvis_rotation	pelvis_tx	pelvis_ty	pelvis_tz	hip_flexion_r	hip_adduction_r	hip_rotation_r	knee_angle_r	ankle_angle_r	subtalar_angle_r	mtp_angle_r	hip_flexion_l	hip_adduction_l	hip_rotation_l	knee_angle_l	ankle_angle_l	subtalar_angle_l	mtp_angle_l	lumbar_extension	lumbar_bending	lumbar_rotation	arm_flex_r	arm_add_r	arm_rot_r	elbow_flex_r	pro_sup_r	arm_flex_l	arm_add_l	arm_rot_l	elbow_flex_l	pro_sup_l
      5.21666670	    -20.43441561	      3.96845158	     -2.35237328	      0.70163773	      0.96671655	      0.06015447	     24.23947044	     -7.16619167	     -4.25832845	     12.47383077	      4.02653202	    -17.20442909	      0.00000000	     22.80462861	     -4.89619696	     -6.79808494	      8.06429955	     -1.02880701	     -9.59511296	      0.00000000	     -0.46022242	      0.83004842	      6.00054713	    163.88944515	   -144.11227783	    193.71338936	    107.02405866	     90.87377241	    359.93805554	    -34.47754784	    358.67399290	     25.81878031	     67.64166325
      5.23333330	    -19.06327014	      3.62588981	     -2.43014649	      0.70827664	      0.97112322	      0.05958484	     21.68472102	     -6.83927656	     -4.60894920	     11.15486247	      3.31262635	    -17.34876954	      0.00000000	     20.31333820	     -4.99249987	     -6.64594629	      6.95197212	     -0.89916120	     -9.41550841	      0.00000000	     -0.28305530	      1.25247663	      6.01897215	    161.08267267	   -145.39231498	    190.10143698	    105.91997345	     91.75840418	    358.18031347	    -34.05050102	    356.86379235	     26.15366951	     66.78247768
      5.25000000	    -18.08733546	      3.26281722	     -2.38084654	      0.71056766	      0.97370601	      0.05849894	     19.73058744	     -6.52912634	     -4.81793047	     10.10841293	      3.16415745	    -17.36909619	      0.00000000	     18.62269332	     -5.13854553	     -6.45001429	      6.22460552	     -0.56031419	     -9.48210868	      0.00000000	      0.31687776	      1.68370916	      5.25899158	    160.02185278	   -146.42788801	    188.24726498	    104.12791393	     91.87189994	    356.28014495	    -33.65892306	    356.46633498	     25.63664829	     66.56492415
      5.26666670	    -16.65254207	      3.07271838	     -2.47095850	      0.71224002	      0.97195936	      0.05881865	     17.60719144	     -6.31495937	     -4.54616481	      9.41870062	      3.31467305	    -17.72230272	      0.00000000	     16.54288944	     -5.16430975	     -6.27736171	      5.64746415	     -0.22356725	     -9.72061623	      0.00000000	     -0.10265913	      1.85473486	      5.58228580	    157.75747648	   -147.81097680	    184.70478553	    103.24459894	     92.64663606	    355.15754872	    -32.83589685	    353.41918113	     27.01795342	     65.39569888
      5.28333330	    -15.86519971	      2.87653475	     -2.59261568	      0.71454541	      0.97476052	      0.05805348	     16.30377270	     -6.08354097	     -4.50445779	      8.78613836	      3.14584759	    -17.82477121	      0.00000000	     15.30315792	     -5.24910800	     -6.11608944	      5.24349578	      0.05176796	     -9.76395752	      0.00000000	      0.37913145	      2.08993947	      4.75990887	    157.32991858	   -149.02059401	    183.05686536	    101.35880449	     92.71866066	    353.51860543	    -32.02260270	    352.98328257	     26.38149546	     65.20628140
      5.30000000	    -14.78166029	      2.71625206	     -2.68266231	      0.71791423	      0.97363746	      0.05840634	     14.69857313	     -5.91485156	     -4.20273460	      8.28656873	      3.34202408	    -18.04595361	      0.00000000	     13.79126950	     -5.35129367	     -5.94155268	      5.03840469	      0.19939603	    -10.02422831	      0.00000000	      0.48977800	      2.14785359	      4.07993680	    157.13260494	   -150.56998986	    181.20226496	     99.28661140	     92.79517899	    352.56409796	    -31.06817898	    352.06492181	     25.86809912	     64.88239086
      5.31666670	    -13.42647842	      2.55878706	     -2.79430101	      0.72228367	      0.97809951	      0.05903061	     12.68123086	     -5.77808252	     -4.02433659	      7.64821401	      3.60413086	    -17.84996340	      0.00000000	     11.97981734	     -5.43990271	     -5.79045313	      4.73693580	      0.29617172	    -10.22728068	      0.00000000	      0.15081938	      2.12067756	      4.05926905	    156.13977671	   -152.74313310	    178.42677556	     97.42990300	     93.42032810	    352.34571096	    -29.22357061	    348.16680989	     25.57091851	     63.68945909
      5.33333330	    -12.62361602	      2.39028220	     -2.78706195	      0.72512912	      0.97725289	      0.05755618	     11.29955654	     -5.62782523	     -3.89799085	      7.11290589	      3.66176181	    -17.94769870	      0.00000000	     10.90150777	     -5.54657491	     -5.57499352	      4.72681253	      0.51263738	    -10.28630613	      0.00000000	      0.51124565	      2.06962224	      3.13552749	    156.50042996	   -154.78415375	    176.61521243	     94.82417944	     93.43520348	    351.17840652	    -27.84704055	    347.60914781	     24.93010859	     63.53077857
      5.35000000	    -11.69094936	      2.24290559	     -2.83229717	      0.72642817	      0.97823881	      0.05764884	      9.81576757	     -5.50362865	     -3.46774304	      6.53714777	      3.85874257	    -17.93403608	      0.00000000	      9.73470789	     -5.63883583	     -5.48478623	      4.72240108	      0.62022779	    -10.56933396	      0.00000000	      0.54192711	      1.99919580	      2.47321835	    157.15784090	   -157.03672362	    174.64902984	     91.76835515	     93.40161189	    350.63017168	    -26.15163261	    346.80285842	     24.19898593	     63.30220818
      5.36666670	    -10.65660573	      2.11230882	     -2.87420810	      0.72745494	      0.97589110	      0.05619973	      8.31060604	     -5.40839895	     -3.45457031	      6.01021669	      3.72108944	    -18.36287083	      0.00000000	      8.40575687	     -5.66404619	     -5.27575187	      4.52114341	      0.76385702	    -11.01034929	      0.00000000	      0.35108577	      1.91333482	      2.76656245	    157.42881615	   -159.67636209	    171.52501010	     89.18194814	     93.62576869	    351.19221364	    -23.82438328	    342.89121778	     24.05805007	     62.51711436
